# xmcd
#
# Track frame offsets:
#	225
#	6190
#	14210
#	19858
#	32228
#	37796
#	46034
#	52804
#	60887
#	68241
#	78531
#	85665
#	93761
#	102227
#	110903
#	128839
#	140505
#	149654
#	164087
#	172932
#	186978
#	199345
#
# Disc length: 2740 seconds
#
# Revision: 0
# Processed by: cddbd v1.5PL3 Copyright (c) Steve Scherf et al.
# Submitted via: dBpowerAMP V4.0
#
DISCID=2e0ab116
DTITLE=Lorca, Federico Garcia - Primer romancer gitano 1924-1927
DYEAR=1900
DGENRE=
TTITLE0=Romancer de luna, luna
TTITLE1=Preciosa y el aire
TTITLE2=Reyerta
TTITLE3=Romance sonámbulo
TTITLE4=La monja gitana
TTITLE5=La casada infiel
TTITLE6=Romance de pena negra
TTITLE7=San Miguel (Granada)
TTITLE8=San Rafel (Cordoba)
TTITLE9=San Gabriel (Sevilla)
TTITLE10=Prendimiento de Antoñito el Camborio en el camino de Sevilla
TTITLE11=Muerte de Antoñito el Camborio
TTITLE12=Muerto de Amor
TTITLE13=El emplazado
TTITLE14=Romance de la Guardia Civil Española
TTITLE15=Martirio de Santa Olalla
TTITLE16=Burla de Don Pedro a Caballo
TTITLE17=Thamar y Amnon
TTITLE18=La cogida y la muerte
TTITLE19=La sangre derramada
TTITLE20=Cuerpo presente
TTITLE21=Alma ausente
EXTD=
EXTT0=
EXTT1=
EXTT2=
EXTT3=
EXTT4=
EXTT5=
EXTT6=
EXTT7=
EXTT8=
EXTT9=
EXTT10=
EXTT11=
EXTT12=
EXTT13=
EXTT14=
EXTT15=
EXTT16=
EXTT17=
EXTT18=
EXTT19=
EXTT20=
EXTT21=
PLAYORDER=
